<?xml version="1.0" standalone="no"?>
<!DOCTYPE svg PUBLIC "-//W3C//DTD SVG 20010904//EN"
 "http://www.w3.org/TR/2001/REC-SVG-20010904/DTD/svg10.dtd">
<svg version="1.0" xmlns="http://www.w3.org/2000/svg"
 width="512.000000pt" height="512.000000pt" viewBox="0 0 512.000000 512.000000"
 preserveAspectRatio="xMidYMid meet">

<g transform="translate(0.000000,512.000000) scale(0.100000,-0.100000)"
fill="#000000" stroke="none">
<path d="M2375 4824 c-405 -42 -773 -170 -1100 -382 -264 -171 -529 -435 -720
-717 -37 -55 -78 -111 -90 -125 -13 -14 -26 -34 -29 -45 -7 -22 -73 -99 -87
-101 -5 -1 -15 -2 -22 -3 -18 -2 -47 -73 -96 -236 -36 -120 -65 -269 -82 -423
-15 -140 -7 -446 16 -587 36 -229 142 -565 178 -565 4 0 5 4 2 10 -4 6 1 7 11
3 13 -5 15 -3 10 8 -7 12 11 -7 57 -60 14 -17 27 -37 81 -117 333 -503 750
-844 1262 -1032 611 -225 1264 -181 1854 126 388 201 676 469 995 927 45 64
92 115 106 115 15 0 3 -91 -16 -128 -9 -18 -15 -36 -12 -38 11 -12 123 243
165 376 82 257 113 459 114 725 0 331 -51 602 -169 890 -38 95 -69 153 -63
120 2 -5 1 -13 0 -17 -1 -5 -3 -14 -4 -20 -2 -27 -32 -10 -73 42 -56 70 -51
64 -103 140 -477 696 -1184 1098 -1960 1114 -102 2 -203 2 -225 0z m378 -254
c572 -48 1095 -355 1404 -825 79 -120 153 -281 153 -332 0 -33 -24 -10 -105
103 -236 329 -500 559 -820 714 -345 168 -701 230 -1052 185 -431 -56 -824
-247 -1137 -552 -81 -80 -247 -270 -271 -312 -22 -38 -96 -131 -104 -131 -44
0 30 183 141 348 164 244 388 443 660 586 344 182 705 251 1131 216z m-32
-400 c530 -54 995 -373 1206 -825 48 -104 90 -249 92 -315 0 -8 3 -70 6 -137
3 -68 2 -123 -2 -123 -16 0 -29 16 -30 35 0 11 -4 36 -7 55 -4 19 -7 43 -7 53
0 9 -4 15 -8 12 -5 -2 -21 35 -36 82 -34 108 -84 215 -147 313 -74 115 -83
127 -207 251 -227 227 -483 359 -776 399 -113 16 -335 20 -435 9 -297 -33
-572 -161 -792 -368 -214 -201 -342 -415 -419 -701 -33 -124 -34 -127 -34
-345 0 -156 4 -236 14 -274 8 -30 15 -62 16 -70 1 -9 4 -23 7 -31 3 -8 15 -45
26 -81 12 -36 32 -91 46 -122 15 -31 31 -66 36 -79 5 -13 30 -54 55 -93 25
-38 48 -77 52 -85 26 -56 273 -295 373 -361 267 -176 462 -232 805 -233 204 0
317 14 464 59 395 120 745 458 903 871 12 32 21 65 19 73 -1 8 2 10 10 5 8 -5
11 -2 6 8 -3 9 -1 20 4 25 5 5 11 18 13 29 3 10 9 39 15 63 5 25 8 49 5 53 -3
4 4 22 16 38 20 28 20 57 -1 45 -5 -4 -9 1 -9 10 0 9 5 13 10 10 10 -6 14 7
11 33 -3 20 16 14 22 -8 3 -11 2 -20 -2 -20 -4 0 -8 -48 -9 -107 -8 -287 -33
-403 -130 -588 -183 -346 -525 -614 -928 -725 -184 -50 -471 -65 -672 -35
-374 56 -714 249 -952 540 -145 178 -244 402 -252 571 -2 30 -5 54 -8 54 -3 0
-6 42 -8 93 -2 50 -7 128 -11 172 -12 107 -5 339 15 515 3 30 7 71 8 90 25
343 252 692 601 920 296 193 656 277 1026 240z m-131 -242 c0 -9 3 -9 9 1 8
12 12 12 26 -2 16 -17 28 -21 53 -18 6 1 12 -3 12 -9 0 -5 7 -10 15 -10 8 0
15 -4 15 -9 0 -13 47 -60 54 -54 12 13 6 -34 -7 -52 -15 -20 -71 -21 -277 -9
-111 7 -133 19 -104 56 11 14 24 26 29 28 10 4 22 13 54 40 50 42 121 64 121
38z m1447 -1185 c0 -10 4 -64 8 -120 4 -62 2 -109 -4 -120 -8 -16 -10 -15 -16
7 -3 14 -4 65 -1 113 4 75 3 88 -10 83 -8 -3 -14 -1 -14 4 0 6 5 10 11 10 5 0
7 5 3 11 -5 9 5 22 21 29 1 0 1 -8 2 -17z m-3173 -1072 c36 -64 204 -269 300
-365 279 -282 581 -454 958 -546 172 -42 295 -54 498 -47 282 9 507 66 767
192 303 148 552 362 791 679 53 71 103 131 111 134 25 8 3 -76 -45 -175 -191
-392 -588 -731 -1029 -879 -115 -39 -138 -45 -248 -69 -176 -39 -514 -48 -712
-20 -534 75 -1011 371 -1305 809 -80 119 -156 289 -143 321 4 13 8 13 25 1 11
-8 26 -24 32 -35z m1849 -298 c33 -4 45 -9 38 -16 -7 -7 -7 -16 0 -29 7 -14 6
-18 -6 -18 -9 0 -18 -6 -21 -14 -3 -8 -12 -12 -20 -9 -8 3 -14 1 -14 -5 0 -6
-23 -25 -52 -42 -45 -28 -58 -31 -97 -26 -25 3 -47 10 -50 15 -4 4 -16 11 -28
15 -26 8 -83 65 -83 83 0 7 -4 13 -10 13 -20 0 -9 19 17 27 30 10 254 14 326
6z"/>
</g>
</svg>
